<mxfile host="app.diagrams.net" modified="2022-12-14T13:39:16.094Z" agent="5.0 (Windows NT 10.0; Win64; x64) AppleWebKit/537.36 (KHTML, like Gecko) Chrome/108.0.0.0 Safari/537.36" etag="ugmcvpne5Azq-IZRRPy2" version="20.6.2" type="github">
  <diagram id="fmBw7mxjbvWGm2GWvBtQ" name="PÃ¡gina-1">
    <mxGraphModel dx="782" dy="394" grid="1" gridSize="10" guides="1" tooltips="1" connect="1" arrows="1" fold="1" page="1" pageScale="1" pageWidth="827" pageHeight="1169" math="0" shadow="0">
      <root>
        <mxCell id="0" />
        <mxCell id="1" parent="0" />
        <mxCell id="j1v4Q9wKb9o2JD1riZlh-1" value="" style="strokeWidth=2;html=1;shape=mxgraph.flowchart.database;whiteSpace=wrap;fillColor=#fad7ac;strokeColor=#b46504;" parent="1" vertex="1">
          <mxGeometry x="90" y="880" width="140" height="180" as="geometry" />
        </mxCell>
        <mxCell id="j1v4Q9wKb9o2JD1riZlh-2" value="" style="strokeWidth=2;html=1;shape=mxgraph.flowchart.database;whiteSpace=wrap;fillColor=#fad7ac;strokeColor=#b46504;" parent="1" vertex="1">
          <mxGeometry x="510" y="880" width="120" height="180" as="geometry" />
        </mxCell>
        <mxCell id="j1v4Q9wKb9o2JD1riZlh-3" value="" style="shape=actor;whiteSpace=wrap;html=1;" parent="1" vertex="1">
          <mxGeometry x="490" y="20" width="70" height="60" as="geometry" />
        </mxCell>
        <mxCell id="j1v4Q9wKb9o2JD1riZlh-5" value="" style="whiteSpace=wrap;html=1;aspect=fixed;fillColor=#e3c800;strokeColor=#B09500;fontColor=#000000;fontStyle=3" parent="1" vertex="1">
          <mxGeometry x="40" y="310" width="190" height="190" as="geometry" />
        </mxCell>
        <mxCell id="j1v4Q9wKb9o2JD1riZlh-6" value="FIFA Manager API" style="whiteSpace=wrap;html=1;aspect=fixed;fillColor=#f5f5f5;gradientColor=#b3b3b3;strokeColor=#666666;fontStyle=3" parent="1" vertex="1">
          <mxGeometry x="440" y="310" width="190" height="190" as="geometry" />
        </mxCell>
        <mxCell id="j1v4Q9wKb9o2JD1riZlh-11" value="https://futdb.app/api/doc" style="whiteSpace=wrap;html=1;aspect=fixed;fillColor=#f9f7ed;strokeColor=#36393d;" parent="1" vertex="1">
          <mxGeometry x="310" y="560" width="150" height="150" as="geometry" />
        </mxCell>
        <mxCell id="j1v4Q9wKb9o2JD1riZlh-25" value="" style="shape=flexArrow;endArrow=classic;html=1;rounded=0;exitX=1.014;exitY=0.582;exitDx=0;exitDy=0;exitPerimeter=0;" parent="1" source="j1v4Q9wKb9o2JD1riZlh-5" edge="1">
          <mxGeometry width="50" height="50" relative="1" as="geometry">
            <mxPoint x="280" y="430" as="sourcePoint" />
            <mxPoint x="440" y="421" as="targetPoint" />
          </mxGeometry>
        </mxCell>
        <mxCell id="j1v4Q9wKb9o2JD1riZlh-26" value="Grpc Request" style="text;html=1;align=center;verticalAlign=middle;resizable=0;points=[];autosize=1;strokeColor=none;fillColor=none;fontStyle=3;fontFamily=Verdana;" parent="1" vertex="1">
          <mxGeometry x="270" y="370" width="110" height="30" as="geometry" />
        </mxCell>
        <mxCell id="j1v4Q9wKb9o2JD1riZlh-28" value="" style="shape=flexArrow;endArrow=classic;html=1;rounded=0;exitX=0.5;exitY=1;exitDx=0;exitDy=0;" parent="1" source="j1v4Q9wKb9o2JD1riZlh-5" edge="1">
          <mxGeometry width="50" height="50" relative="1" as="geometry">
            <mxPoint x="40" y="680" as="sourcePoint" />
            <mxPoint x="135" y="880" as="targetPoint" />
          </mxGeometry>
        </mxCell>
        <mxCell id="j1v4Q9wKb9o2JD1riZlh-29" value="" style="shape=flexArrow;endArrow=classic;html=1;rounded=0;entryX=0.684;entryY=1;entryDx=0;entryDy=0;entryPerimeter=0;exitX=0.569;exitY=-0.022;exitDx=0;exitDy=0;exitPerimeter=0;" parent="1" source="j1v4Q9wKb9o2JD1riZlh-1" target="j1v4Q9wKb9o2JD1riZlh-5" edge="1">
          <mxGeometry width="50" height="50" relative="1" as="geometry">
            <mxPoint x="170" y="680" as="sourcePoint" />
            <mxPoint x="200" y="510" as="targetPoint" />
          </mxGeometry>
        </mxCell>
        <mxCell id="j1v4Q9wKb9o2JD1riZlh-31" value="" style="shape=flexArrow;endArrow=classic;html=1;rounded=0;exitX=0.218;exitY=0;exitDx=0;exitDy=0;exitPerimeter=0;" parent="1" source="j1v4Q9wKb9o2JD1riZlh-2" edge="1">
          <mxGeometry width="50" height="50" relative="1" as="geometry">
            <mxPoint x="490" y="550" as="sourcePoint" />
            <mxPoint x="540" y="500" as="targetPoint" />
          </mxGeometry>
        </mxCell>
        <mxCell id="j1v4Q9wKb9o2JD1riZlh-32" value="" style="shape=flexArrow;endArrow=classic;html=1;rounded=0;entryX=0.5;entryY=0;entryDx=0;entryDy=0;entryPerimeter=0;" parent="1" target="j1v4Q9wKb9o2JD1riZlh-2" edge="1">
          <mxGeometry width="50" height="50" relative="1" as="geometry">
            <mxPoint x="570" y="510" as="sourcePoint" />
            <mxPoint x="600" y="840" as="targetPoint" />
          </mxGeometry>
        </mxCell>
        <mxCell id="j1v4Q9wKb9o2JD1riZlh-37" value="ManagerPlayerDB" style="text;html=1;align=center;verticalAlign=middle;resizable=0;points=[];autosize=1;strokeColor=none;fillColor=none;" parent="1" vertex="1">
          <mxGeometry x="510" y="955" width="120" height="30" as="geometry" />
        </mxCell>
        <mxCell id="j1v4Q9wKb9o2JD1riZlh-38" value="&lt;span style=&quot;&quot;&gt;SyncDB&lt;/span&gt;" style="text;html=1;align=center;verticalAlign=middle;resizable=0;points=[];autosize=1;strokeColor=none;fillColor=none;" parent="1" vertex="1">
          <mxGeometry x="130" y="955" width="70" height="30" as="geometry" />
        </mxCell>
        <mxCell id="j1v4Q9wKb9o2JD1riZlh-39" value="" style="shape=flexArrow;endArrow=classic;html=1;rounded=0;" parent="1" edge="1">
          <mxGeometry width="50" height="50" relative="1" as="geometry">
            <mxPoint x="500" y="300" as="sourcePoint" />
            <mxPoint x="500" y="80" as="targetPoint" />
          </mxGeometry>
        </mxCell>
        <mxCell id="j1v4Q9wKb9o2JD1riZlh-40" value="" style="shape=flexArrow;endArrow=classic;html=1;rounded=0;" parent="1" edge="1">
          <mxGeometry width="50" height="50" relative="1" as="geometry">
            <mxPoint x="550" y="90" as="sourcePoint" />
            <mxPoint x="550" y="300" as="targetPoint" />
          </mxGeometry>
        </mxCell>
        <mxCell id="j1v4Q9wKb9o2JD1riZlh-43" value="" style="shape=flexArrow;endArrow=classic;html=1;rounded=0;exitX=1;exitY=1;exitDx=0;exitDy=0;entryX=0;entryY=0.25;entryDx=0;entryDy=0;" parent="1" source="j1v4Q9wKb9o2JD1riZlh-5" target="j1v4Q9wKb9o2JD1riZlh-11" edge="1">
          <mxGeometry width="50" height="50" relative="1" as="geometry">
            <mxPoint x="240" y="570" as="sourcePoint" />
            <mxPoint x="300" y="600" as="targetPoint" />
          </mxGeometry>
        </mxCell>
        <mxCell id="j1v4Q9wKb9o2JD1riZlh-45" value="" style="shape=flexArrow;endArrow=classic;html=1;rounded=0;entryX=1;entryY=0.75;entryDx=0;entryDy=0;exitX=0.139;exitY=-0.039;exitDx=0;exitDy=0;exitPerimeter=0;" parent="1" source="j1v4Q9wKb9o2JD1riZlh-11" target="j1v4Q9wKb9o2JD1riZlh-5" edge="1">
          <mxGeometry width="50" height="50" relative="1" as="geometry">
            <mxPoint x="390" y="530" as="sourcePoint" />
            <mxPoint x="420" y="490" as="targetPoint" />
          </mxGeometry>
        </mxCell>
        <mxCell id="j1v4Q9wKb9o2JD1riZlh-46" value="Response" style="text;html=1;align=center;verticalAlign=middle;resizable=0;points=[];autosize=1;fontStyle=1" parent="1" vertex="1">
          <mxGeometry x="285" y="470" width="80" height="30" as="geometry" />
        </mxCell>
        <mxCell id="j1v4Q9wKb9o2JD1riZlh-47" value="Request" style="text;html=1;align=center;verticalAlign=middle;resizable=0;points=[];autosize=1;strokeColor=none;fillColor=none;fontStyle=3" parent="1" vertex="1">
          <mxGeometry x="205" y="525" width="70" height="30" as="geometry" />
        </mxCell>
        <mxCell id="T1xx0aCk4cqj0PgXrj9G-1" value="&lt;span style=&quot;font-family: Helvetica; font-style: italic; font-weight: 700;&quot;&gt;FIFA Manager Player Sync API&lt;/span&gt;" style="text;html=1;align=center;verticalAlign=middle;resizable=0;points=[];autosize=1;strokeColor=none;fillColor=none;fontFamily=Verdana;" vertex="1" parent="1">
          <mxGeometry x="35" y="330" width="200" height="30" as="geometry" />
        </mxCell>
        <mxCell id="T1xx0aCk4cqj0PgXrj9G-2" value="&lt;span style=&quot;font-family: Helvetica; font-style: italic; font-weight: 700;&quot;&gt;FIFA Manager Player Worker&lt;/span&gt;" style="text;html=1;align=center;verticalAlign=middle;resizable=0;points=[];autosize=1;strokeColor=#BD7000;fillColor=#f0a30a;fontFamily=Verdana;fontColor=#000000;" vertex="1" parent="1">
          <mxGeometry x="40" y="420" width="190" height="30" as="geometry" />
        </mxCell>
        <mxCell id="T1xx0aCk4cqj0PgXrj9G-3" value="External API" style="text;html=1;align=center;verticalAlign=middle;resizable=0;points=[];autosize=1;strokeColor=none;fillColor=none;fontFamily=Comic Sans MS;fontStyle=7" vertex="1" parent="1">
          <mxGeometry x="330" y="720" width="100" height="30" as="geometry" />
        </mxCell>
      </root>
    </mxGraphModel>
  </diagram>
</mxfile>
